<svg xmlns="http://www.w3.org/2000/svg" viewBox="0 0 501 551" id="el_Sy_xVGjnm" height="551" width="501"><style>@-webkit-keyframes el_B1ldgEGo2X_Sk4NIfohQ_Animation{33.33%{-webkit-transform: translate(224.83999633789062px, 440.8700256347656px) rotate(32430deg) translate(-224.83999633789062px, -440.8700256347656px);transform: translate(224.83999633789062px, 440.8700256347656px) rotate(32430deg) translate(-224.83999633789062px, -440.8700256347656px);}66.67%{-webkit-transform: translate(224.83999633789062px, 440.8700256347656px) rotate(64860deg) translate(-224.83999633789062px, -440.8700256347656px);transform: translate(224.83999633789062px, 440.8700256347656px) rotate(64860deg) translate(-224.83999633789062px, -440.8700256347656px);}100%{-webkit-transform: translate(224.83999633789062px, 440.8700256347656px) rotate(129720deg) translate(-224.83999633789062px, -440.8700256347656px);transform: translate(224.83999633789062px, 440.8700256347656px) rotate(129720deg) translate(-224.83999633789062px, -440.8700256347656px);}0%{-webkit-transform: translate(224.83999633789062px, 440.8700256347656px) rotate(32430deg) translate(-224.83999633789062px, -440.8700256347656px);transform: translate(224.83999633789062px, 440.8700256347656px) rotate(32430deg) translate(-224.83999633789062px, -440.8700256347656px);}}@keyframes el_B1ldgEGo2X_Sk4NIfohQ_Animation{33.33%{-webkit-transform: translate(224.83999633789062px, 440.8700256347656px) rotate(32430deg) translate(-224.83999633789062px, -440.8700256347656px);transform: translate(224.83999633789062px, 440.8700256347656px) rotate(32430deg) translate(-224.83999633789062px, -440.8700256347656px);}66.67%{-webkit-transform: translate(224.83999633789062px, 440.8700256347656px) rotate(64860deg) translate(-224.83999633789062px, -440.8700256347656px);transform: translate(224.83999633789062px, 440.8700256347656px) rotate(64860deg) translate(-224.83999633789062px, -440.8700256347656px);}100%{-webkit-transform: translate(224.83999633789062px, 440.8700256347656px) rotate(129720deg) translate(-224.83999633789062px, -440.8700256347656px);transform: translate(224.83999633789062px, 440.8700256347656px) rotate(129720deg) translate(-224.83999633789062px, -440.8700256347656px);}0%{-webkit-transform: translate(224.83999633789062px, 440.8700256347656px) rotate(32430deg) translate(-224.83999633789062px, -440.8700256347656px);transform: translate(224.83999633789062px, 440.8700256347656px) rotate(32430deg) translate(-224.83999633789062px, -440.8700256347656px);}}@-webkit-keyframes el_S1oulEfo3Q_r1--8fohX_Animation{33.33%{-webkit-transform: translate(380.6026611328125px, 329.9801025390625px) rotate(90deg) translate(-380.6026611328125px, -329.9801025390625px);transform: translate(380.6026611328125px, 329.9801025390625px) rotate(90deg) translate(-380.6026611328125px, -329.9801025390625px);}66.67%{-webkit-transform: translate(380.6026611328125px, 329.9801025390625px) rotate(180deg) translate(-380.6026611328125px, -329.9801025390625px);transform: translate(380.6026611328125px, 329.9801025390625px) rotate(180deg) translate(-380.6026611328125px, -329.9801025390625px);}100%{-webkit-transform: translate(380.6026611328125px, 329.9801025390625px) rotate(0deg) translate(-380.6026611328125px, -329.9801025390625px);transform: translate(380.6026611328125px, 329.9801025390625px) rotate(0deg) translate(-380.6026611328125px, -329.9801025390625px);}0%{-webkit-transform: translate(380.6026611328125px, 329.9801025390625px) rotate(90deg) translate(-380.6026611328125px, -329.9801025390625px);transform: translate(380.6026611328125px, 329.9801025390625px) rotate(90deg) translate(-380.6026611328125px, -329.9801025390625px);}}@keyframes el_S1oulEfo3Q_r1--8fohX_Animation{33.33%{-webkit-transform: translate(380.6026611328125px, 329.9801025390625px) rotate(90deg) translate(-380.6026611328125px, -329.9801025390625px);transform: translate(380.6026611328125px, 329.9801025390625px) rotate(90deg) translate(-380.6026611328125px, -329.9801025390625px);}66.67%{-webkit-transform: translate(380.6026611328125px, 329.9801025390625px) rotate(180deg) translate(-380.6026611328125px, -329.9801025390625px);transform: translate(380.6026611328125px, 329.9801025390625px) rotate(180deg) translate(-380.6026611328125px, -329.9801025390625px);}100%{-webkit-transform: translate(380.6026611328125px, 329.9801025390625px) rotate(0deg) translate(-380.6026611328125px, -329.9801025390625px);transform: translate(380.6026611328125px, 329.9801025390625px) rotate(0deg) translate(-380.6026611328125px, -329.9801025390625px);}0%{-webkit-transform: translate(380.6026611328125px, 329.9801025390625px) rotate(90deg) translate(-380.6026611328125px, -329.9801025390625px);transform: translate(380.6026611328125px, 329.9801025390625px) rotate(90deg) translate(-380.6026611328125px, -329.9801025390625px);}}@-webkit-keyframes el_SyLl_e4fjnm_Animation{0%{opacity: 0.3;}33.33%{opacity: 1;}50%{opacity: 0.5;}66.67%{opacity: 0;}73.33%{opacity: 1;}83.33%{opacity: 0.5;}93.33%{opacity: 1;}96.67%{opacity: 0.2;}100%{opacity: 1;}}@keyframes el_SyLl_e4fjnm_Animation{0%{opacity: 0.3;}33.33%{opacity: 1;}50%{opacity: 0.5;}66.67%{opacity: 0;}73.33%{opacity: 1;}83.33%{opacity: 0.5;}93.33%{opacity: 1;}96.67%{opacity: 0.2;}100%{opacity: 1;}}@-webkit-keyframes el_Byb-dgVGj2Q_HJ5SHzi3X_Animation{0%{-webkit-transform: translate(216.70608520507812px, -0.002593994140625px) scale(0.2, 0.2) translate(-216.70608520507812px, 0.002593994140625px);transform: translate(216.70608520507812px, -0.002593994140625px) scale(0.2, 0.2) translate(-216.70608520507812px, 0.002593994140625px);}33.33%{-webkit-transform: translate(216.70608520507812px, -0.002593994140625px) scale(1.5, 1.5) translate(-216.70608520507812px, 0.002593994140625px);transform: translate(216.70608520507812px, -0.002593994140625px) scale(1.5, 1.5) translate(-216.70608520507812px, 0.002593994140625px);}66.67%{-webkit-transform: translate(216.70608520507812px, -0.002593994140625px) scale(1.3, 1.3) translate(-216.70608520507812px, 0.002593994140625px);transform: translate(216.70608520507812px, -0.002593994140625px) scale(1.3, 1.3) translate(-216.70608520507812px, 0.002593994140625px);}73.33%{-webkit-transform: translate(216.70608520507812px, -0.002593994140625px) scale(1.1, 1.1) translate(-216.70608520507812px, 0.002593994140625px);transform: translate(216.70608520507812px, -0.002593994140625px) scale(1.1, 1.1) translate(-216.70608520507812px, 0.002593994140625px);}83.33%{-webkit-transform: translate(216.70608520507812px, -0.002593994140625px) scale(1.2, 1.2) translate(-216.70608520507812px, 0.002593994140625px);transform: translate(216.70608520507812px, -0.002593994140625px) scale(1.2, 1.2) translate(-216.70608520507812px, 0.002593994140625px);}92.22%{-webkit-transform: translate(216.70608520507812px, -0.002593994140625px) scale(1, 1) translate(-216.70608520507812px, 0.002593994140625px);transform: translate(216.70608520507812px, -0.002593994140625px) scale(1, 1) translate(-216.70608520507812px, 0.002593994140625px);}100%{-webkit-transform: translate(216.70608520507812px, -0.002593994140625px) scale(0.4, 0.4) translate(-216.70608520507812px, 0.002593994140625px);transform: translate(216.70608520507812px, -0.002593994140625px) scale(0.4, 0.4) translate(-216.70608520507812px, 0.002593994140625px);}}@keyframes el_Byb-dgVGj2Q_HJ5SHzi3X_Animation{0%{-webkit-transform: translate(216.70608520507812px, -0.002593994140625px) scale(0.2, 0.2) translate(-216.70608520507812px, 0.002593994140625px);transform: translate(216.70608520507812px, -0.002593994140625px) scale(0.2, 0.2) translate(-216.70608520507812px, 0.002593994140625px);}33.33%{-webkit-transform: translate(216.70608520507812px, -0.002593994140625px) scale(1.5, 1.5) translate(-216.70608520507812px, 0.002593994140625px);transform: translate(216.70608520507812px, -0.002593994140625px) scale(1.5, 1.5) translate(-216.70608520507812px, 0.002593994140625px);}66.67%{-webkit-transform: translate(216.70608520507812px, -0.002593994140625px) scale(1.3, 1.3) translate(-216.70608520507812px, 0.002593994140625px);transform: translate(216.70608520507812px, -0.002593994140625px) scale(1.3, 1.3) translate(-216.70608520507812px, 0.002593994140625px);}73.33%{-webkit-transform: translate(216.70608520507812px, -0.002593994140625px) scale(1.1, 1.1) translate(-216.70608520507812px, 0.002593994140625px);transform: translate(216.70608520507812px, -0.002593994140625px) scale(1.1, 1.1) translate(-216.70608520507812px, 0.002593994140625px);}83.33%{-webkit-transform: translate(216.70608520507812px, -0.002593994140625px) scale(1.2, 1.2) translate(-216.70608520507812px, 0.002593994140625px);transform: translate(216.70608520507812px, -0.002593994140625px) scale(1.2, 1.2) translate(-216.70608520507812px, 0.002593994140625px);}92.22%{-webkit-transform: translate(216.70608520507812px, -0.002593994140625px) scale(1, 1) translate(-216.70608520507812px, 0.002593994140625px);transform: translate(216.70608520507812px, -0.002593994140625px) scale(1, 1) translate(-216.70608520507812px, 0.002593994140625px);}100%{-webkit-transform: translate(216.70608520507812px, -0.002593994140625px) scale(0.4, 0.4) translate(-216.70608520507812px, 0.002593994140625px);transform: translate(216.70608520507812px, -0.002593994140625px) scale(0.4, 0.4) translate(-216.70608520507812px, 0.002593994140625px);}}@-webkit-keyframes el_BknZdxNfo37_H1RC4Mo3m_Animation{33.33%{-webkit-transform: translate(0.01263427734375px, 123.53988647460938px) rotate(18000deg) translate(-0.01263427734375px, -123.53988647460938px);transform: translate(0.01263427734375px, 123.53988647460938px) rotate(18000deg) translate(-0.01263427734375px, -123.53988647460938px);}66.67%{-webkit-transform: translate(0.01263427734375px, 123.53988647460938px) rotate(64800deg) translate(-0.01263427734375px, -123.53988647460938px);transform: translate(0.01263427734375px, 123.53988647460938px) rotate(64800deg) translate(-0.01263427734375px, -123.53988647460938px);}100%{-webkit-transform: translate(0.01263427734375px, 123.53988647460938px) rotate(7200deg) translate(-0.01263427734375px, -123.53988647460938px);transform: translate(0.01263427734375px, 123.53988647460938px) rotate(7200deg) translate(-0.01263427734375px, -123.53988647460938px);}0%{-webkit-transform: translate(0.01263427734375px, 123.53988647460938px) rotate(18000deg) translate(-0.01263427734375px, -123.53988647460938px);transform: translate(0.01263427734375px, 123.53988647460938px) rotate(18000deg) translate(-0.01263427734375px, -123.53988647460938px);}}@keyframes el_BknZdxNfo37_H1RC4Mo3m_Animation{33.33%{-webkit-transform: translate(0.01263427734375px, 123.53988647460938px) rotate(18000deg) translate(-0.01263427734375px, -123.53988647460938px);transform: translate(0.01263427734375px, 123.53988647460938px) rotate(18000deg) translate(-0.01263427734375px, -123.53988647460938px);}66.67%{-webkit-transform: translate(0.01263427734375px, 123.53988647460938px) rotate(64800deg) translate(-0.01263427734375px, -123.53988647460938px);transform: translate(0.01263427734375px, 123.53988647460938px) rotate(64800deg) translate(-0.01263427734375px, -123.53988647460938px);}100%{-webkit-transform: translate(0.01263427734375px, 123.53988647460938px) rotate(7200deg) translate(-0.01263427734375px, -123.53988647460938px);transform: translate(0.01263427734375px, 123.53988647460938px) rotate(7200deg) translate(-0.01263427734375px, -123.53988647460938px);}0%{-webkit-transform: translate(0.01263427734375px, 123.53988647460938px) rotate(18000deg) translate(-0.01263427734375px, -123.53988647460938px);transform: translate(0.01263427734375px, 123.53988647460938px) rotate(18000deg) translate(-0.01263427734375px, -123.53988647460938px);}}@-webkit-keyframes el_SkPM_gEGin7_rJ-vNMinX_Animation{0%{-webkit-transform: translate(3.826385498046875px, 336.126953125px) rotate(0deg) translate(-3.826385498046875px, -336.126953125px);transform: translate(3.826385498046875px, 336.126953125px) rotate(0deg) translate(-3.826385498046875px, -336.126953125px);}33.33%{-webkit-transform: translate(3.826385498046875px, 336.126953125px) rotate(-32490deg) translate(-3.826385498046875px, -336.126953125px);transform: translate(3.826385498046875px, 336.126953125px) rotate(-32490deg) translate(-3.826385498046875px, -336.126953125px);}66.67%{-webkit-transform: translate(3.826385498046875px, 336.126953125px) rotate(35540deg) translate(-3.826385498046875px, -336.126953125px);transform: translate(3.826385498046875px, 336.126953125px) rotate(35540deg) translate(-3.826385498046875px, -336.126953125px);}100%{-webkit-transform: translate(3.826385498046875px, 336.126953125px) rotate(35540deg) translate(-3.826385498046875px, -336.126953125px);transform: translate(3.826385498046875px, 336.126953125px) rotate(35540deg) translate(-3.826385498046875px, -336.126953125px);}}@keyframes el_SkPM_gEGin7_rJ-vNMinX_Animation{0%{-webkit-transform: translate(3.826385498046875px, 336.126953125px) rotate(0deg) translate(-3.826385498046875px, -336.126953125px);transform: translate(3.826385498046875px, 336.126953125px) rotate(0deg) translate(-3.826385498046875px, -336.126953125px);}33.33%{-webkit-transform: translate(3.826385498046875px, 336.126953125px) rotate(-32490deg) translate(-3.826385498046875px, -336.126953125px);transform: translate(3.826385498046875px, 336.126953125px) rotate(-32490deg) translate(-3.826385498046875px, -336.126953125px);}66.67%{-webkit-transform: translate(3.826385498046875px, 336.126953125px) rotate(35540deg) translate(-3.826385498046875px, -336.126953125px);transform: translate(3.826385498046875px, 336.126953125px) rotate(35540deg) translate(-3.826385498046875px, -336.126953125px);}100%{-webkit-transform: translate(3.826385498046875px, 336.126953125px) rotate(35540deg) translate(-3.826385498046875px, -336.126953125px);transform: translate(3.826385498046875px, 336.126953125px) rotate(35540deg) translate(-3.826385498046875px, -336.126953125px);}}@-webkit-keyframes el_SkPM_gEGin7_rypG4MjnX_Animation{33.33%{-webkit-transform: translate(3.826385498046875px, 336.126953125px) translate(-3.826385498046875px, -336.126953125px) translate(30px, 30px);transform: translate(3.826385498046875px, 336.126953125px) translate(-3.826385498046875px, -336.126953125px) translate(30px, 30px);}66.67%{-webkit-transform: translate(3.826385498046875px, 336.126953125px) translate(-3.826385498046875px, -336.126953125px) translate(150px, -30px);transform: translate(3.826385498046875px, 336.126953125px) translate(-3.826385498046875px, -336.126953125px) translate(150px, -30px);}100%{-webkit-transform: translate(3.826385498046875px, 336.126953125px) translate(-3.826385498046875px, -336.126953125px) translate(60px, 60px);transform: translate(3.826385498046875px, 336.126953125px) translate(-3.826385498046875px, -336.126953125px) translate(60px, 60px);}0%{-webkit-transform: translate(3.826385498046875px, 336.126953125px) translate(-3.826385498046875px, -336.126953125px) translate(30px, 30px);transform: translate(3.826385498046875px, 336.126953125px) translate(-3.826385498046875px, -336.126953125px) translate(30px, 30px);}}@keyframes el_SkPM_gEGin7_rypG4MjnX_Animation{33.33%{-webkit-transform: translate(3.826385498046875px, 336.126953125px) translate(-3.826385498046875px, -336.126953125px) translate(30px, 30px);transform: translate(3.826385498046875px, 336.126953125px) translate(-3.826385498046875px, -336.126953125px) translate(30px, 30px);}66.67%{-webkit-transform: translate(3.826385498046875px, 336.126953125px) translate(-3.826385498046875px, -336.126953125px) translate(150px, -30px);transform: translate(3.826385498046875px, 336.126953125px) translate(-3.826385498046875px, -336.126953125px) translate(150px, -30px);}100%{-webkit-transform: translate(3.826385498046875px, 336.126953125px) translate(-3.826385498046875px, -336.126953125px) translate(60px, 60px);transform: translate(3.826385498046875px, 336.126953125px) translate(-3.826385498046875px, -336.126953125px) translate(60px, 60px);}0%{-webkit-transform: translate(3.826385498046875px, 336.126953125px) translate(-3.826385498046875px, -336.126953125px) translate(30px, 30px);transform: translate(3.826385498046875px, 336.126953125px) translate(-3.826385498046875px, -336.126953125px) translate(30px, 30px);}}#el_Sy_xVGjnm *{-webkit-animation-duration: 3s;animation-duration: 3s;-webkit-animation-iteration-count: infinite;animation-iteration-count: infinite;-webkit-animation-timing-function: cubic-bezier(0, 0, 1, 1);animation-timing-function: cubic-bezier(0, 0, 1, 1);}#el_SJ-OxNMo3m{fill: #ff7dad;}#el_ryM_lEzo3X{fill: #c772b2;stroke: #952a90;stroke-miterlimit: 10;stroke-width: 1.83px;-webkit-transform: translate(-243.59px, -232.69px);transform: translate(-243.59px, -232.69px);}#el_S17ueVGj37{stroke: #952a90;stroke-miterlimit: 10;stroke-width: 1.83px;fill: #010101;-webkit-transform: translate(-443.75px, 960.98px) rotate(-89.25deg);transform: translate(-443.75px, 960.98px) rotate(-89.25deg);}#el_S1EueVfohQ{fill: #010101;-webkit-transform: translate(-243.59px, -232.69px);transform: translate(-243.59px, -232.69px);}#el_H1rueVfsnX{fill: #952a90;-webkit-transform: translate(-243.59px, -232.69px);transform: translate(-243.59px, -232.69px);}#el_Sk8ugEzjh7{stroke: #952a90;stroke-miterlimit: 10;stroke-width: 1.83px;fill: #010101;-webkit-transform: translate(-456.41px, 947.92px) rotate(-89.25deg);transform: translate(-456.41px, 947.92px) rotate(-89.25deg);}#el_SyvdxVMo3X{fill: #010101;-webkit-transform: translate(-243.59px, -232.69px);transform: translate(-243.59px, -232.69px);}#el_Bk_dg4GonX{fill: #952a90;-webkit-transform: translate(-243.59px, -232.69px);transform: translate(-243.59px, -232.69px);}#el_S1YuxEfi27{fill: #ff7dad;-webkit-transform: translate(-243.59px, -232.69px);transform: translate(-243.59px, -232.69px);}#el_SJq_lNzo3X{fill: #ff7dad;-webkit-transform: translate(-243.59px, -232.69px);transform: translate(-243.59px, -232.69px);}#el_Syndx4Monm{fill: #ff7dad;-webkit-transform: translate(-433.39px, 659.53px) rotate(-60deg);transform: translate(-433.39px, 659.53px) rotate(-60deg);}#el_B1aue4GihQ{fill: #c772b2;stroke: #952a90;stroke-miterlimit: 10;stroke-width: 1.83px;-webkit-transform: translate(-243.59px, -232.69px);transform: translate(-243.59px, -232.69px);}#el_ByA_lNzi2m{stroke: #952a90;stroke-miterlimit: 10;stroke-width: 1.83px;fill: #010101;-webkit-transform: translate(-429.98px, 628.09px) rotate(-59.25deg);transform: translate(-429.98px, 628.09px) rotate(-59.25deg);}#el_BJke_eEGjn7{fill: #010101;-webkit-transform: translate(-243.59px, -232.69px);transform: translate(-243.59px, -232.69px);}#el_ByxeOeEGohX{fill: #952a90;-webkit-transform: translate(-243.59px, -232.69px);transform: translate(-243.59px, -232.69px);}#el_SJZgOg4zihX{stroke: #952a90;stroke-miterlimit: 10;stroke-width: 1.83px;fill: #010101;-webkit-transform: translate(-442.78px, 627.9px) rotate(-59.25deg);transform: translate(-442.78px, 627.9px) rotate(-59.25deg);}#el_HyfedlVfohQ{fill: #010101;-webkit-transform: translate(-243.59px, -232.69px);transform: translate(-243.59px, -232.69px);}#el_H1mlOe4Gj37{fill: #952a90;-webkit-transform: translate(-243.59px, -232.69px);transform: translate(-243.59px, -232.69px);}#el_H1Neue4Mi3m{fill: #ff7dad;-webkit-transform: translate(-243.59px, -232.69px);transform: translate(-243.59px, -232.69px);}#el_HJHgOg4Gj2X{fill: #ff7dad;-webkit-transform: translate(-243.59px, -232.69px);transform: translate(-243.59px, -232.69px);}#el_r1PedxEfo3m{fill: #ff7dad;-webkit-transform: translate(-353.47px, 158.07px) rotate(-30deg);transform: translate(-353.47px, 158.07px) rotate(-30deg);}#el_ryOeOl4Gi3Q{fill: #c772b2;stroke: #952a90;stroke-miterlimit: 10;stroke-width: 1.83px;-webkit-transform: translate(-243.59px, -232.69px);transform: translate(-243.59px, -232.69px);}#el_r1Flux4zs3m{stroke: #952a90;stroke-miterlimit: 10;stroke-width: 1.83px;fill: #010101;-webkit-transform: translate(-357.99px, 138.04px) rotate(-29.25deg);transform: translate(-357.99px, 138.04px) rotate(-29.25deg);}#el_SJcgueEGinX{fill: #010101;-webkit-transform: translate(-243.59px, -232.69px);transform: translate(-243.59px, -232.69px);}#el_SJje_xNMj3X{fill: #952a90;-webkit-transform: translate(-243.59px, -232.69px);transform: translate(-243.59px, -232.69px);}#el_By2xdxEfinX{stroke: #952a90;stroke-miterlimit: 10;stroke-width: 1.83px;fill: #010101;-webkit-transform: translate(-362.69px, 142.6px) rotate(-29.25deg);transform: translate(-362.69px, 142.6px) rotate(-29.25deg);}#el_rJ6xulNzihQ{fill: #010101;-webkit-transform: translate(-243.59px, -232.69px);transform: translate(-243.59px, -232.69px);}#el_BkCg_eNzi2X{fill: #952a90;-webkit-transform: translate(-243.59px, -232.69px);transform: translate(-243.59px, -232.69px);}#el_r11ZdxVfonQ{fill: #ff7dad;-webkit-transform: translate(-243.59px, -232.69px);transform: translate(-243.59px, -232.69px);}#el_ryeZOlNMihX{fill: #ff7dad;-webkit-transform: translate(-243.59px, -232.69px);transform: translate(-243.59px, -232.69px);}#el_S1zWug4zsnQ{fill: #ff7dad;}#el_SyQW_e4Gshm{fill: #c772b2;stroke: #952a90;stroke-miterlimit: 10;stroke-width: 1.83px;-webkit-transform: translate(-243.59px, -232.69px);transform: translate(-243.59px, -232.69px);}#el_HJNW_l4Minm{stroke: #952a90;stroke-miterlimit: 10;stroke-width: 1.83px;fill: #010101;-webkit-transform: translate(-85.11px, 565.49px) rotate(-89.25deg);transform: translate(-85.11px, 565.49px) rotate(-89.25deg);}#el_HJSbdeEfo27{fill: #010101;-webkit-transform: translate(-243.59px, -232.69px);transform: translate(-243.59px, -232.69px);}#el_ryUbOeNfshQ{fill: #952a90;-webkit-transform: translate(-243.59px, -232.69px);transform: translate(-243.59px, -232.69px);}#el_BJvW_gEfihX{stroke: #952a90;stroke-miterlimit: 10;stroke-width: 1.83px;fill: #010101;-webkit-transform: translate(-72.45px, 578.56px) rotate(-89.25deg);transform: translate(-72.45px, 578.56px) rotate(-89.25deg);}#el_Bku-OxNfohX{fill: #010101;-webkit-transform: translate(-243.59px, -232.69px);transform: translate(-243.59px, -232.69px);}#el_ByFW_e4zj3m{fill: #952a90;-webkit-transform: translate(-243.59px, -232.69px);transform: translate(-243.59px, -232.69px);}#el_B15-ulVfshX{fill: #ff7dad;-webkit-transform: translate(-243.59px, -232.69px);transform: translate(-243.59px, -232.69px);}#el_BkiWulVzo2X{fill: #ff7dad;-webkit-transform: translate(-243.59px, -232.69px);transform: translate(-243.59px, -232.69px);}#el_rkpWugVGs27{fill: #ff7dad;-webkit-transform: translate(-440.48px, 239.41px) rotate(-60deg);transform: translate(-440.48px, 239.41px) rotate(-60deg);}#el_B10-ueVzjn7{fill: #c772b2;stroke: #952a90;stroke-miterlimit: 10;stroke-width: 1.83px;-webkit-transform: translate(-243.59px, -232.69px);transform: translate(-243.59px, -232.69px);}#el_SJ1zueNfs3m{stroke: #952a90;stroke-miterlimit: 10;stroke-width: 1.83px;fill: #010101;-webkit-transform: translate(-448.32px, 252.85px) rotate(-59.25deg);transform: translate(-448.32px, 252.85px) rotate(-59.25deg);}#el_r1eGdlEMonm{fill: #010101;-webkit-transform: translate(-243.59px, -232.69px);transform: translate(-243.59px, -232.69px);}#el_HJ-M_eNzinX{fill: #952a90;-webkit-transform: translate(-243.59px, -232.69px);transform: translate(-243.59px, -232.69px);}#el_S1zMOeNzsnX{stroke: #952a90;stroke-miterlimit: 10;stroke-width: 1.83px;fill: #010101;-webkit-transform: translate(-435.51px, 253.05px) rotate(-59.25deg);transform: translate(-435.51px, 253.05px) rotate(-59.25deg);}#el_SJmz_lVMj37{fill: #010101;-webkit-transform: translate(-243.59px, -232.69px);transform: translate(-243.59px, -232.69px);}#el_HJ4zux4zjhQ{fill: #952a90;-webkit-transform: translate(-243.59px, -232.69px);transform: translate(-243.59px, -232.69px);}#el_B1HfdlEMi3X{fill: #ff7dad;-webkit-transform: translate(-243.59px, -232.69px);transform: translate(-243.59px, -232.69px);}#el_BJIG_l4Mo37{fill: #ff7dad;-webkit-transform: translate(-243.59px, -232.69px);transform: translate(-243.59px, -232.69px);}#el_HJ_Gdl4GonX{fill: #ff7dad;-webkit-transform: translate(-509.84px, 6.9px) rotate(-30deg);transform: translate(-509.84px, 6.9px) rotate(-30deg);}#el_rkYGulEfj37{fill: #c772b2;stroke: #952a90;stroke-miterlimit: 10;stroke-width: 1.83px;-webkit-transform: translate(-243.59px, -232.69px);transform: translate(-243.59px, -232.69px);}#el_HkcfdlEfs3X{stroke: #952a90;stroke-miterlimit: 10;stroke-width: 1.83px;fill: #010101;-webkit-transform: translate(-500.15px, 9.13px) rotate(-29.25deg);transform: translate(-500.15px, 9.13px) rotate(-29.25deg);}#el_BJiz_xNMo2X{fill: #010101;-webkit-transform: translate(-243.59px, -232.69px);transform: translate(-243.59px, -232.69px);}#el_BJnMugVGo2Q{fill: #952a90;-webkit-transform: translate(-243.59px, -232.69px);transform: translate(-243.59px, -232.69px);}#el_H1TG_xVfs2X{stroke: #952a90;stroke-miterlimit: 10;stroke-width: 1.83px;fill: #010101;-webkit-transform: translate(-495.46px, 4.58px) rotate(-29.25deg);transform: translate(-495.46px, 4.58px) rotate(-29.25deg);}#el_HyCzdeEGs3m{fill: #010101;-webkit-transform: translate(-243.59px, -232.69px);transform: translate(-243.59px, -232.69px);}#el_HkJmOxVfihQ{fill: #952a90;-webkit-transform: translate(-243.59px, -232.69px);transform: translate(-243.59px, -232.69px);}#el_rkxQ_gNzs3m{fill: #ff7dad;-webkit-transform: translate(-243.59px, -232.69px);transform: translate(-243.59px, -232.69px);}#el_BkbQ_lNzonX{fill: #ff7dad;-webkit-transform: translate(-243.59px, -232.69px);transform: translate(-243.59px, -232.69px);}#el_SkPM_gEGin7_rypG4MjnX{-webkit-animation-name: el_SkPM_gEGin7_rypG4MjnX_Animation;animation-name: el_SkPM_gEGin7_rypG4MjnX_Animation;-webkit-animation-timing-function: cubic-bezier(0.42, 0, 1, 1);animation-timing-function: cubic-bezier(0.42, 0, 1, 1);-webkit-transform: translate(3.826385498046875px, 336.126953125px) translate(-3.826385498046875px, -336.126953125px) translate(30px, 30px);transform: translate(3.826385498046875px, 336.126953125px) translate(-3.826385498046875px, -336.126953125px) translate(30px, 30px);}#el_SkPM_gEGin7_rJ-vNMinX{-webkit-animation-name: el_SkPM_gEGin7_rJ-vNMinX_Animation;animation-name: el_SkPM_gEGin7_rJ-vNMinX_Animation;-webkit-transform: translate(3.826385498046875px, 336.126953125px) rotate(0deg) translate(-3.826385498046875px, -336.126953125px);transform: translate(3.826385498046875px, 336.126953125px) rotate(0deg) translate(-3.826385498046875px, -336.126953125px);}#el_BknZdxNfo37_H1RC4Mo3m{-webkit-animation-name: el_BknZdxNfo37_H1RC4Mo3m_Animation;animation-name: el_BknZdxNfo37_H1RC4Mo3m_Animation;-webkit-transform: translate(0.01263427734375px, 123.53988647460938px) rotate(18000deg) translate(-0.01263427734375px, -123.53988647460938px);transform: translate(0.01263427734375px, 123.53988647460938px) rotate(18000deg) translate(-0.01263427734375px, -123.53988647460938px);}#el_Byb-dgVGj2Q_HJ5SHzi3X{-webkit-animation-name: el_Byb-dgVGj2Q_HJ5SHzi3X_Animation;animation-name: el_Byb-dgVGj2Q_HJ5SHzi3X_Animation;-webkit-transform: translate(216.70608520507812px, -0.002593994140625px) scale(0.2, 0.2) translate(-216.70608520507812px, 0.002593994140625px);transform: translate(216.70608520507812px, -0.002593994140625px) scale(0.2, 0.2) translate(-216.70608520507812px, 0.002593994140625px);}#el_SyLl_e4fjnm{-webkit-animation-name: el_SyLl_e4fjnm_Animation;animation-name: el_SyLl_e4fjnm_Animation;-webkit-animation-timing-function: cubic-bezier(0.42, 0, 0.58, 1);animation-timing-function: cubic-bezier(0.42, 0, 0.58, 1);opacity: 0.3;}#el_S1oulEfo3Q_r1--8fohX{-webkit-animation-name: el_S1oulEfo3Q_r1--8fohX_Animation;animation-name: el_S1oulEfo3Q_r1--8fohX_Animation;-webkit-animation-timing-function: cubic-bezier(0.42, 0, 1, 1);animation-timing-function: cubic-bezier(0.42, 0, 1, 1);}#el_B1ldgEGo2X_Sk4NIfohQ{-webkit-animation-name: el_B1ldgEGo2X_Sk4NIfohQ_Animation;animation-name: el_B1ldgEGo2X_Sk4NIfohQ_Animation;}</style><defs/><title>verken</title><g id="el_B1ldgEGo2X_Sk4NIfohQ" data-animator-group="true" data-animator-type="1"><g id="el_B1ldgEGo2X" data-name="Calque 1"><ellipse cx="254.05" cy="485.89" rx="29.21" ry="45.02" id="el_SJ-OxNMo3m"/><path d="M514.33,697.92c-.07,6.47-7.73,23.37-17,23.28s-16.56-17.11-16.49-23.58,7.65-15.56,16.89-15.48S514.4,691.44,514.33,697.92Z" id="el_ryM_lEzo3X"/><ellipse cx="504.61" cy="698.23" rx="8.01" ry="6.48" id="el_S17ueVGj37"/><path d="M519.25,732.2a3.64,3.64,0,0,1-.44-.07,6.87,6.87,0,0,0-1.13-.12,7,7,0,0,0-1.13.12,3.83,3.83,0,0,1-.43.07,8.47,8.47,0,0,1-.31-3c0-5.35,1.28-8.31,1.87-8.77.59.46,1.87,3.42,1.87,8.77A8.64,8.64,0,0,1,519.25,732.2Z" id="el_S1EueVfohQ"/><path d="M517.68,723.35a24.18,24.18,0,0,1,.65,5.87,15.81,15.81,0,0,1-.06,1.6,5.82,5.82,0,0,0-1.18,0c0-.37-.06-.89-.06-1.6a24.18,24.18,0,0,1,.65-5.87m0-4.15c-1.7,0-3.08,4.49-3.08,10,0,3.56.57,4.2,1.43,4.2.48,0,1.05-.2,1.65-.2s1.17.2,1.65.2c.86,0,1.44-.64,1.44-4.2,0-5.53-1.39-10-3.09-10Z" id="el_H1rueVfsnX"/><ellipse cx="491.66" cy="698.11" rx="8.01" ry="6.48" id="el_Sk8ugEzjh7"/><path d="M480.39,732.2a3.49,3.49,0,0,1-.43-.07,5.43,5.43,0,0,0-2.27,0,3.49,3.49,0,0,1-.43.07,8.64,8.64,0,0,1-.3-3c0-5.35,1.27-8.31,1.86-8.77.6.46,1.87,3.42,1.87,8.77A8.64,8.64,0,0,1,480.39,732.2Z" id="el_SyvdxVMo3X"/><path d="M478.82,723.35a23.69,23.69,0,0,1,.65,5.87c0,.71,0,1.23-.05,1.6a5.92,5.92,0,0,0-1.19,0c0-.37-.06-.89-.06-1.6a24.18,24.18,0,0,1,.65-5.87m0-4.15c-1.7,0-3.08,4.49-3.08,10,0,3.56.57,4.2,1.44,4.2.47,0,1-.2,1.64-.2s1.17.2,1.65.2c.86,0,1.44-.64,1.44-4.2,0-5.53-1.38-10-3.09-10Z" id="el_Bk_dg4GonX"/><path d="M516.57,738.51h0c5.33-.52,9.66-1.24,10.4,6.31l.79,8.08c.74,7.55-1.59,28.68-6.91,29.21h0c-5.33.52-11.72-19.76-12.47-27.31l-.79-8.07C506.85,739.18,511.24,739,516.57,738.51Z" id="el_S1YuxEfi27"/><path d="M483.67,740.8h0c5.32.59,9.7.79,8.86,8.33l-.89,8.06c-.84,7.54-7.49,27.74-12.81,27.14h0c-5.33-.59-7.38-21.75-6.54-29.29l.89-8.06C474,739.44,478.34,740.21,483.67,740.8Z" id="el_SJq_lNzo3X"/></g></g><g id="el_S1oulEfo3Q_r1--8fohX" data-animator-group="true" data-animator-type="1"><g id="el_S1oulEfo3Q" data-name="Calque 2"><ellipse cx="677.79" cy="610.48" rx="29.21" ry="45.02" id="el_Syndx4Monm"/><path d="M668.23,585.7c5.58,3.29,16.38,18.38,11.69,26.34s-23.1,5.78-28.67,2.48-9.65-14.4-5-22.36S662.66,582.4,668.23,585.7Z" id="el_B1aue4GihQ"/><ellipse cx="663.65" cy="594.27" rx="6.48" ry="8.01" id="el_ByA_lNzi2m"/><path d="M698.82,601.29a8.76,8.76,0,0,1-2.73-1.23c-4.62-2.67-6.56-5.25-6.66-6a1.85,1.85,0,0,1,.65-.09c1.79,0,4.88,1.12,7.87,2.85a8.53,8.53,0,0,1,2.43,1.75c-.07.1-.19.24-.27.34a6.1,6.1,0,0,0-.67.92,6,6,0,0,0-.46,1Z" id="el_BJke_eEGjn7"/><path d="M691.94,595.51a24.35,24.35,0,0,1,5.4,2.37c.62.36,1.06.64,1.36.85l-.32.5c-.1.18-.19.36-.27.53-.34-.16-.8-.4-1.42-.75a24.58,24.58,0,0,1-4.75-3.5m-1.86-2.74a1.91,1.91,0,0,0-1.74.66c-.85,1.48,2.35,4.92,7.14,7.68a8.14,8.14,0,0,0,3.42,1.4c1.1,0,1.05-1.13,1.59-2.06.85-1.48,2.86-1.91-1.93-4.68-3.32-1.91-6.53-3-8.48-3Z" id="el_ByxeOeEGohX"/><ellipse cx="657.07" cy="605.43" rx="6.48" ry="8.01" id="el_SJZgOg4zihX"/><path d="M679.39,634.94a8.76,8.76,0,0,1-2.73-1.23c-4.62-2.67-6.55-5.25-6.66-6a1.88,1.88,0,0,1,.66-.09c1.78,0,4.87,1.12,7.86,2.85a8.53,8.53,0,0,1,2.43,1.75c-.07.1-.19.24-.27.34a6.1,6.1,0,0,0-.67.92,6,6,0,0,0-.46,1Z" id="el_HyfedlVfohQ"/><path d="M672.51,629.16a24.6,24.6,0,0,1,5.41,2.37c.61.36,1.05.64,1.36.85-.11.15-.22.32-.33.5s-.19.36-.27.53c-.34-.16-.8-.4-1.41-.75a24,24,0,0,1-4.76-3.5m-1.85-2.74c-.87,0-1.48.21-1.74.67-.86,1.47,2.34,4.91,7.13,7.67a8.14,8.14,0,0,0,3.42,1.4c1.11,0,1-1.13,1.59-2.06.85-1.48,2.86-1.91-1.93-4.68-3.31-1.91-6.53-3-8.47-3Z" id="el_H1mlOe4Gj37"/><path d="M704.51,604.05h0c2.21-4.87,3.76-9,10.67-5.85l7.39,3.35c6.9,3.14,24,15.72,21.83,20.6h0c-2.21,4.87-23,.27-29.88-2.87l-7.38-3.35C700.23,612.8,702.3,608.93,704.51,604.05Z" id="el_H1Neue4Mi3m"/><path d="M690,633.69h0c3.17-4.31,5.54-8,11.65-3.51l6.53,4.8c6.11,4.5,20.28,20.36,17.1,24.67h0c-3.17,4.31-22.53-4.49-28.64-9l-6.53-4.81C684,641.36,686.87,638,690,633.69Z" id="el_HJHgOg4Gj2X"/></g></g><g id="el_SyLl_e4fjnm" data-name="Calque 3"><ellipse cx="674.24" cy="400.42" rx="45.02" ry="29.21" id="el_r1PedxEfo3m"/><path d="M648,396.3c5.64-3.18,24.11-5,28.66,3.05s-6.55,22.9-12.19,26.07-17.3,1.16-21.85-6.89S642.36,399.48,648,396.3Z" id="el_ryOeOl4Gi3Q"/><ellipse cx="653.13" cy="404.56" rx="8.01" ry="6.48" id="el_r1Flux4zs3m"/><path d="M666.5,382.2a2.06,2.06,0,0,1-.66-.08c.11-.74,2-3.33,6.66-6a8.68,8.68,0,0,1,2.73-1.23,3.89,3.89,0,0,1,.16.41,6.81,6.81,0,0,0,.46,1,6.88,6.88,0,0,0,.67.92l.28.34a8.92,8.92,0,0,1-2.43,1.75C671.38,381.09,668.29,382.2,666.5,382.2Z" id="el_SJcgueEGinX"/><path d="M674.53,376.43a3.79,3.79,0,0,0,.27.53c.1.18.21.34.32.5-.31.21-.75.49-1.36.85a24,24,0,0,1-5.4,2.36,24,24,0,0,1,4.75-3.49c.61-.35,1.08-.59,1.42-.75m.79-2.75a8.24,8.24,0,0,0-3.43,1.39c-4.79,2.77-8,6.21-7.13,7.68.26.46.88.67,1.74.67,1.94,0,5.16-1.09,8.48-3,4.79-2.77,2.78-3.2,1.92-4.68-.54-.93-.48-2.06-1.58-2.06Z" id="el_SJje_xNMj3X"/><ellipse cx="659.51" cy="415.83" rx="8.01" ry="6.48" id="el_By2xdxEfinX"/><path d="M685.93,415.86a1.93,1.93,0,0,1-.66-.09c.11-.74,2-3.32,6.66-6a8.87,8.87,0,0,1,2.73-1.23l.16.41a6,6,0,0,0,.46,1,6.88,6.88,0,0,0,.67.92,4,4,0,0,1,.27.34A8.56,8.56,0,0,1,693.8,413C690.8,414.74,687.71,415.86,685.93,415.86Z" id="el_rJ6xulNzihQ"/><path d="M694,410.08a5.16,5.16,0,0,0,.26.53c.11.18.22.35.33.5-.31.21-.75.49-1.36.85a24.76,24.76,0,0,1-5.4,2.37,23.57,23.57,0,0,1,4.75-3.5c.61-.35,1.07-.59,1.42-.75m.79-2.75a8.24,8.24,0,0,0-3.43,1.39c-4.79,2.77-8,6.21-7.13,7.68.26.46.87.67,1.74.67,1.94,0,5.16-1.09,8.47-3,4.8-2.77,2.78-3.2,1.93-4.68-.54-.93-.48-2.06-1.58-2.06Z" id="el_BkCg_eNzi2X"/><path d="M682,374.06h0c-3.12-4.35-5.9-7.75.27-12.16l6.59-4.72c6.17-4.42,25.64-13,28.75-8.62h0c3.12,4.35-11.25,20-17.41,24.45l-6.6,4.72C687.47,382.14,685.15,378.42,682,374.06Z" id="el_r11ZdxVfonQ"/><path d="M700.47,401.41h0c-2.15-4.9-4.17-8.8,2.78-11.84l7.43-3.26c7-3,27.77-7.38,29.91-2.47h0c2.15,4.9-15.15,17.26-22.1,20.31l-7.43,3.25C704.12,410.44,702.62,406.32,700.47,401.41Z" id="el_ryeZOlNMihX"/></g><g id="el_Byb-dgVGj2Q_HJ5SHzi3X" data-animator-group="true" data-animator-type="2"><g id="el_Byb-dgVGj2Q" data-name="Calque 4"><ellipse cx="246.95" cy="65.77" rx="29.21" ry="45.02" id="el_S1zWug4zsnQ"/><path d="M473.86,319.12c.07-6.47,7.74-23.37,17-23.29s16.55,17.12,16.48,23.59S499.67,335,490.43,334.9,473.8,325.6,473.86,319.12Z" id="el_SyQW_e4Gshm"/><ellipse cx="483.58" cy="318.81" rx="8.01" ry="6.48" id="el_HJNW_l4Minm"/><path d="M470.51,296.59c-.59-.46-1.87-3.42-1.87-8.77a8.58,8.58,0,0,1,.31-3,3.49,3.49,0,0,1,.43.07,5.38,5.38,0,0,0,2.26,0,3.83,3.83,0,0,1,.43-.07,8.47,8.47,0,0,1,.31,3C472.38,293.17,471.1,296.13,470.51,296.59Z" id="el_HJSbdeEfo27"/><path d="M469.92,286.22a5.82,5.82,0,0,0,1.18,0,15.81,15.81,0,0,1,.06,1.6,24,24,0,0,1-.65,5.86,24,24,0,0,1-.65-5.86c0-.71,0-1.23.06-1.6m2.24-2.6c-.48,0-1,.19-1.65.19s-1.17-.19-1.65-.19c-.86,0-1.43.64-1.43,4.2,0,5.53,1.38,10,3.08,10s3.08-4.49,3.08-10c0-3.57-.57-4.2-1.43-4.2Z" id="el_ryUbOeNfshQ"/><ellipse cx="496.53" cy="318.92" rx="8.01" ry="6.48" id="el_BJvW_gEfihX"/><path d="M509.37,296.59c-.59-.46-1.87-3.42-1.87-8.77a8.75,8.75,0,0,1,.3-3,3.35,3.35,0,0,1,.44.07,6.87,6.87,0,0,0,1.13.12,7,7,0,0,0,1.13-.12,3.49,3.49,0,0,1,.43-.07,8.64,8.64,0,0,1,.3,3C511.23,293.17,510,296.13,509.37,296.59Z" id="el_Bku-OxNfohX"/><path d="M508.78,286.22a5.41,5.41,0,0,0,.59,0,5.54,5.54,0,0,0,.59,0c0,.37.06.89.06,1.6a24,24,0,0,1-.65,5.86,24,24,0,0,1-.65-5.86,15.81,15.81,0,0,1,.06-1.6m2.23-2.6c-.47,0-1,.19-1.64.19s-1.17-.19-1.65-.19c-.86,0-1.44.64-1.44,4.2,0,5.53,1.38,10,3.09,10s3.08-4.49,3.08-10c0-3.57-.57-4.2-1.44-4.2Z" id="el_ByFW_e4zj3m"/><path d="M471.62,278.53h0c-5.32.52-9.66,1.23-10.4-6.32l-.79-8.07c-.74-7.55,1.59-28.68,6.92-29.21h0c5.33-.52,11.72,19.76,12.46,27.31l.79,8.07C481.34,277.86,477,278,471.62,278.53Z" id="el_B15-ulVfshX"/><path d="M504.53,276.24h0c-5.32-.59-9.71-.79-8.87-8.33l.89-8.06c.84-7.54,7.5-27.74,12.82-27.15h0c5.32.6,7.37,21.76,6.54,29.3l-.9,8.06C514.17,277.6,509.85,276.83,504.53,276.24Z" id="el_BkiWulVzo2X"/></g></g><g id="el_BknZdxNfo37_H1RC4Mo3m" data-animator-group="true" data-animator-type="1"><g id="el_BknZdxNfo37" data-name="Calque 5"><ellipse cx="310.4" cy="406.56" rx="29.21" ry="45.02" id="el_rkpWugVGs27"/><path d="M320,431.34c-5.57-3.29-16.38-18.38-11.68-26.34s23.09-5.78,28.67-2.48,9.64,14.4,4.95,22.36S325.53,434.64,320,431.34Z" id="el_B10-ueVzjn7"/><ellipse cx="324.54" cy="422.77" rx="6.48" ry="8.01" id="el_SJ1zueNfs3m"/><path d="M298.11,423.06c-1.79,0-4.88-1.12-7.87-2.85a8.53,8.53,0,0,1-2.43-1.75c.07-.1.19-.24.27-.34a5.19,5.19,0,0,0,1.14-2c0-.12.1-.29.15-.4a8.2,8.2,0,0,1,2.74,1.22c4.62,2.67,6.55,5.25,6.65,6A1.85,1.85,0,0,1,298.11,423.06Z" id="el_r1eGdlEMonm"/><path d="M290.08,417.28c.34.16.8.4,1.42.75a23.87,23.87,0,0,1,4.75,3.5,24.35,24.35,0,0,1-5.4-2.37c-.62-.36-1.05-.64-1.36-.85a4.78,4.78,0,0,0,.32-.5,5.31,5.31,0,0,0,.27-.53m-.79-2.75c-1.1,0-1.05,1.13-1.59,2.06-.85,1.48-2.86,1.91,1.93,4.68,3.32,1.91,6.53,3,8.48,3,.86,0,1.48-.21,1.74-.67.85-1.47-2.34-4.91-7.14-7.68a8.17,8.17,0,0,0-3.42-1.39Z" id="el_HJ-M_eNzinX"/><ellipse cx="331.12" cy="411.61" rx="6.48" ry="8.01" id="el_S1zMOeNzsnX"/><path d="M317.54,389.4c-1.79,0-4.88-1.11-7.87-2.84a8.53,8.53,0,0,1-2.43-1.75c.07-.1.19-.24.27-.34a6.87,6.87,0,0,0,.68-.92,5.83,5.83,0,0,0,.45-1l.16-.41a8.63,8.63,0,0,1,2.74,1.23c4.61,2.66,6.55,5.25,6.65,6A1.94,1.94,0,0,1,317.54,389.4Z" id="el_SJmz_lVMj37"/><path d="M309.51,383.63c.34.16.8.4,1.42.75a24.61,24.61,0,0,1,4.75,3.49,23.79,23.79,0,0,1-5.4-2.36,16,16,0,0,1-1.36-.86c.1-.15.22-.31.32-.49s.19-.36.27-.53m-.79-2.75c-1.1,0-1.05,1.13-1.59,2.06-.85,1.48-2.86,1.91,1.93,4.68,3.32,1.91,6.53,3,8.48,3,.86,0,1.47-.21,1.74-.67.85-1.47-2.35-4.91-7.14-7.68a8.17,8.17,0,0,0-3.42-1.39Z" id="el_HJ4zux4zjhQ"/><path d="M283.68,413h0c-2.21,4.87-3.76,9-10.67,5.85l-7.38-3.35c-6.91-3.14-24-15.72-21.84-20.6h0c2.21-4.87,23-.27,29.88,2.86l7.39,3.35C288,404.24,285.9,408.11,283.68,413Z" id="el_B1HfdlEMi3X"/><path d="M298.15,383.35h0c-3.17,4.31-5.54,8-11.65,3.51L280,382.05c-6.11-4.49-20.27-20.35-17.1-24.66h0c3.17-4.32,22.53,4.49,28.64,9l6.53,4.81C304.15,375.67,301.33,379,298.15,383.35Z" id="el_BJIG_l4Mo37"/></g></g><g id="el_SkPM_gEGin7_rypG4MjnX" data-animator-group="true" data-animator-type="0"><g id="el_SkPM_gEGin7_rJ-vNMinX" data-animator-group="true" data-animator-type="1"><g id="el_SkPM_gEGin7" data-name="Calque 6"><ellipse cx="313.95" cy="616.62" rx="45.02" ry="29.21" id="el_HJ_Gdl4GonX"/><path d="M340.19,620.74c-5.64,3.18-24.11,5-28.65-3s6.54-22.9,12.18-26.08,17.3-1.15,21.85,6.89S345.83,617.56,340.19,620.74Z" id="el_rkYGulEfj37"/><ellipse cx="335.06" cy="612.48" rx="8.01" ry="6.48" id="el_HkcfdlEfs3X"/><path d="M313,642.14l-.16-.41a6,6,0,0,0-.46-1,6.29,6.29,0,0,0-.67-.92,4,4,0,0,1-.27-.34,8.56,8.56,0,0,1,2.42-1.75c3-1.73,6.08-2.85,7.87-2.85a1.93,1.93,0,0,1,.66.09c-.11.74-2,3.32-6.66,6A8.87,8.87,0,0,1,313,642.14Z" id="el_BJiz_xNMo2X"/><path d="M319.83,636.36a23.57,23.57,0,0,1-4.75,3.5c-.61.35-1.07.59-1.42.75a5.16,5.16,0,0,0-.26-.53c-.11-.18-.22-.35-.33-.5.31-.21.75-.49,1.36-.85a24.76,24.76,0,0,1,5.4-2.37m1.86-2.74c-1.94,0-5.16,1.09-8.47,3-4.79,2.77-2.78,3.2-1.93,4.68.54.93.48,2.06,1.59,2.06a8.19,8.19,0,0,0,3.42-1.4c4.79-2.76,8-6.2,7.13-7.67-.26-.46-.87-.67-1.74-.67Z" id="el_BJnMugVGo2Q"/><ellipse cx="328.68" cy="601.21" rx="8.01" ry="6.48" id="el_H1TG_xVfs2X"/><path d="M293.53,608.49l-.16-.41a6,6,0,0,0-.46-1,5.63,5.63,0,0,0-.67-.92c-.08-.1-.2-.24-.27-.34A8.31,8.31,0,0,1,294.4,604c3-1.73,6.08-2.85,7.86-2.85a1.88,1.88,0,0,1,.66.09c-.11.74-2,3.32-6.66,6A8.76,8.76,0,0,1,293.53,608.49Z" id="el_HyCzdeEGs3m"/><path d="M300.41,602.71a24.39,24.39,0,0,1-4.76,3.5c-.61.35-1.07.59-1.41.75-.08-.17-.17-.35-.27-.53s-.22-.35-.33-.5c.31-.21.75-.49,1.36-.85a24.6,24.6,0,0,1,5.41-2.37m1.85-2.74c-1.94,0-5.15,1.09-8.47,3-4.79,2.77-2.78,3.2-1.93,4.68.54.93.48,2.06,1.59,2.06a8.14,8.14,0,0,0,3.42-1.4c4.79-2.76,8-6.2,7.13-7.68-.26-.45-.87-.66-1.74-.66Z" id="el_HkJmOxVfihQ"/><path d="M306.16,643h0c3.11,4.36,5.89,7.75-.27,12.17l-6.6,4.72c-6.17,4.42-25.63,13-28.75,8.62h0c-3.12-4.36,11.25-20,17.42-24.45l6.59-4.72C300.72,634.89,303,638.62,306.16,643Z" id="el_rkxQ_gNzs3m"/><path d="M287.72,615.63h0c2.15,4.9,4.17,8.8-2.78,11.84l-7.43,3.26c-6.95,3-27.76,7.38-29.91,2.47h0c-2.15-4.9,15.15-17.26,22.1-20.31l7.43-3.25C284.08,606.59,285.57,610.72,287.72,615.63Z" id="el_BkbQ_lNzonX"/></g></g></g></svg>