<svg id="Calque_1" data-name="Calque 1" xmlns="http://www.w3.org/2000/svg" viewBox="0 0 719.11 665.06"><title>logo_black</title><circle cx="98.25" cy="121.18" r="50.09"/><circle cx="190.93" cy="64.39" r="44.52"/><circle cx="621.58" cy="544.75" r="50.09"/><circle cx="526.59" cy="597.79" r="44.52"/><circle cx="298.73" cy="66.51" r="33.83"/><circle cx="421.98" cy="599.43" r="33.83"/><circle cx="397.09" cy="114.57" r="27.01"/><circle cx="321.86" cy="550.64" r="27.01"/><circle cx="449.11" cy="210.62" r="19.88"/><circle cx="269.15" cy="458.6" r="19.88"/><circle cx="669.02" cy="288.02" r="50.09"/><circle cx="634.75" cy="396.61" r="44.52"/><circle cx="50.09" cy="375.41" r="50.09"/><circle cx="85.61" cy="270.71" r="44.52"/><circle cx="552.5" cy="467.35" r="33.83"/><circle cx="166.07" cy="197.11" r="33.83"/><circle cx="447.38" cy="500.34" r="27.01"/><circle cx="271.51" cy="165.34" r="27.01"/><circle cx="348.26" cy="464.44" r="19.88"/><circle cx="370.48" cy="201.61" r="19.88"/><circle cx="481.56" cy="50.09" r="50.09"/><circle cx="547.36" cy="138.07" r="44.52"/><circle cx="238.61" cy="614.97" r="50.09"/><circle cx="173.95" cy="525.83" r="44.52"/><circle cx="563.81" cy="250.86" r="33.83"/><circle cx="157.27" cy="415.67" r="33.83"/><circle cx="527.84" cy="357.58" r="27.01"/><circle cx="185.72" cy="307.43" r="27.01"/><circle cx="445.07" cy="425.8" r="19.88"/><circle cx="274.76" cy="242.27" r="19.88"/></svg>